<svg xmlns="http://www.w3.org/2000/svg" width="52" height="50" viewBox="0 0 52 50">
  <g fill="#FFF" transform="translate(0 3)">
    <path d="M46.2636984,0.415011321 L46.2525556,0.415011321 L16.561381,0.415011321 C13.5788095,0.415011321 11.1612222,2.84704906 11.1612222,5.84693585 L11.1612222,10.7176528 L27.4925238,10.7176528 C30.4722063,10.7176528 32.8873175,13.1496906 32.8873175,16.1491623 L32.8873175,29.8132377 L33.4729365,29.8132377 L35.806746,32.5408226 L43.3492222,41.311766 L43.3492222,29.8190491 L46.2525556,29.8190491 C49.2289365,29.8256906 51.6465238,27.4040302 51.6527143,24.4103698 L51.6527143,5.84693585 C51.6556032,2.84995472 49.2429683,0.418332075 46.2636984,0.415011321"/>
    <path d="M23.6825746,14.7726679 L5.47060635,14.7726679 L5.45946349,14.7726679 C2.55530476,14.7755736 0.203336508,17.1486679 0.206225397,20.0725925 L0.206225397,38.1848189 C0.212415873,41.1058377 2.56933651,43.4689698 5.47060635,43.4627434 L23.6825746,43.4573472 L23.7102254,43.4573472 C26.6024159,43.4573472 28.9469556,41.0967057 28.9469556,38.1848189 L28.9469556,20.0725925 C28.9469556,17.1453472 26.5900349,14.7726679 23.6825746,14.7726679" opacity=".502"/>
    <path d="M14.1639333 29.1643623C10.3501873 29.1643623 7.01847302 32.0185509 6.05894921 35.7593811L22.298219 35.7593811C21.3944095 31.9654189 18.1192349 29.1643623 14.1639333 29.1643623M14.0974063 19.1177509C11.5597238 19.1177509 9.50242222 21.1865811 9.50242222 23.7394113 9.50242222 26.2914113 11.5597238 28.3606566 14.0974063 28.3606566 16.6350889 28.3606566 18.6919778 26.2914113 18.6919778 23.7394113 18.6919778 21.1865811 16.6350889 19.1177509 14.0974063 19.1177509"/>
  </g>
</svg>
