<svg xmlns="http://www.w3.org/2000/svg" width="52" height="50" viewBox="0 0 52 50">
  <g fill="#FFF" fill-rule="evenodd" transform="translate(0 9)">
    <path fill-rule="nonzero" d="M46.9268293,0 C49.7284878,0 52,2.25533333 52,5.03703704 L52,28.962963 C52,31.7446667 49.7284878,34 46.9268293,34 L5.07317073,34 C2.2715122,34 0,31.7446667 0,28.962963 L0,5.03703704 C0,2.25533333 2.2715122,0 5.07317073,0 L46.9268293,0 Z M29.2519024,10.9135802 L45.2357724,10.9135802 L45.2357724,7.97530864 L29.2519024,7.97530864 L29.2519024,10.9135802 Z M26.6256911,18.4691358 L45.2357724,18.4691358 L45.2357724,15.5308642 L26.6256911,15.5308642 L26.6256911,18.4691358 Z M31.3061138,26.0246914 L45.2357724,26.0246914 L45.2357724,23.0864198 L31.3061138,23.0864198 L31.3061138,26.0246914 Z" opacity=".5"/>
    <path d="M23.0486829,25.3179951 C23.0486829,25.3805383 23.0486829,25.6332296 22.9852683,25.8855012 C22.9852683,26.326242 22.603935,26.7048593 22.1596098,26.7048593 L7.87271545,26.7048593 L7.87271545,26.6414765 C7.42796748,26.6414765 7.04705691,26.2636988 7.04705691,25.8221185 L7.04705691,25.7591556 L7.04705691,25.2550321 L7.04705691,24.8134519 C7.04705691,20.3372049 10.7297561,16.5543901 15.0478699,16.5543901 C19.492813,16.5543901 23.0486829,20.211279 23.0486829,24.7500691 L23.0486829,25.3179951 Z M14.9844553,7.09777284 C17.403935,7.09777284 19.365561,9.04500741 19.365561,11.4476741 C19.365561,13.8503407 17.403935,15.7979951 14.9844553,15.7979951 C12.5645528,15.7979951 10.6029268,13.8503407 10.6029268,11.4476741 C10.6029268,9.04500741 12.5645528,7.09777284 14.9844553,7.09777284 L14.9844553,7.09777284 Z"/>
  </g>
</svg>
