<svg xmlns="http://www.w3.org/2000/svg" xmlns:xlink="http://www.w3.org/1999/xlink" width="120" height="120" viewBox="0 0 120 120">
  <defs>
    <linearGradient id="sds120-c" x1="50%" x2="50%" y1="89.985%" y2="1.254%">
      <stop offset="0%" stop-color="#FFF" stop-opacity=".09"/>
      <stop offset="100%" stop-color="#FFF" stop-opacity=".998"/>
    </linearGradient>
    <path id="sds120-b" d="M91.0688089,23.9298824 L51.8287793,1.22517647 C49.3341867,-0.251882353 46.1573274,-0.251882353 43.6627348,1.22517647 L4.42446815,23.9298824 C1.92811259,25.4051765 0.339682963,28.1298824 0.339682963,30.9675294 L0.339682963,76.3769412 C0.339682963,79.3292941 1.92811259,82.054 4.42446815,83.4145882 L43.6627348,106.119294 C44.9109126,106.800471 46.27192,107.255765 47.74752,107.255765 C49.221357,107.255765 50.5823644,106.913412 51.8287793,106.119294 L91.0688089,83.4145882 C93.5651644,81.9392941 95.1518311,79.2145882 95.1518311,76.3769412 L95.1518311,30.9675294 C95.1518311,28.1298824 93.5651644,25.4051765 91.0688089,23.9298824"/>
    <filter id="sds120-a" width="107.4%" height="106.5%" x="-3.7%" y="-2.3%" filterUnits="objectBoundingBox">
      <feOffset dy="1" in="SourceAlpha" result="shadowOffsetOuter1"/>
      <feGaussianBlur in="shadowOffsetOuter1" result="shadowBlurOuter1" stdDeviation="1"/>
      <feComposite in="shadowBlurOuter1" in2="SourceAlpha" operator="out" result="shadowBlurOuter1"/>
      <feColorMatrix in="shadowBlurOuter1" values="0 0 0 0 0   0 0 0 0 0   0 0 0 0 0  0 0 0 0.5 0"/>
    </filter>
  </defs>
  <g fill="none" fill-rule="evenodd" transform="translate(12 6)">
    <use fill="#000" filter="url(#sds120-a)" xlink:href="#sds120-b"/>
    <use fill="url(#sds120-c)" fill-opacity=".73" xlink:href="#sds120-b"/>
    <path fill="#FFF" d="M67.8816148,52.7166471 L58.5784593,70.0795882 C58.5784593,70.1784118 54.8956296,77.3554706 47.7238963,77.3554706 C47.0469185,77.3554706 44.8167704,77.2584118 44.2349926,77.1631176 C35.8997037,75.6101765 33.7682815,68.0431176 33.7682815,67.9460588 L27.6649037,48.9331176 C27.5679407,48.6419412 27.081363,47.5760588 27.3722519,46.5066471 C27.5679407,45.9260588 28.0509926,45.4407647 28.8266963,45.0525294 C29.6024,44.6660588 30.3781037,44.569 30.9598815,44.9572353 C31.9277481,45.3437059 32.218637,46.3142941 32.218637,46.3142941 C33.6730815,50.1931176 35.3196889,53.5884118 35.9984296,53.6872353 C36.0953926,53.6872353 36.1905926,53.4913529 36.2893185,53.3960588 C36.5784444,52.8137059 36.2893185,51.7460588 36.1905926,51.4548824 L33.2852296,39.4266471 C33.2852296,39.2325294 32.1216741,35.5478235 34.4470222,34.5772353 C35.125763,34.3813529 35.8045037,34.3813529 36.3862815,34.5772353 C37.3559111,35.1595882 37.742,36.2254706 37.742,36.2254706 L41.5217926,48.9331176 C41.7157185,49.5154706 42.0066074,50.8725294 42.5866222,50.7754706 C42.6853481,50.7754706 42.7823111,50.6801765 42.8775111,50.5813529 C43.0732,50.2919412 43.0732,49.2242941 43.0732,49.2242941 L41.9096444,34.2860588 C41.7157185,33.0242941 41.8126815,30.5995882 44.2349926,30.1142941 C45.2046222,29.9201765 45.978563,30.0172353 46.5603407,30.4037059 C47.5299704,31.0831176 47.7238963,32.2478235 47.7238963,32.3448824 C47.7238963,32.3448824 48.8874519,45.6348824 49.1783407,48.1566471 C49.2735407,49.6125294 49.4692296,50.0978235 49.6613926,50.0978235 C50.4370963,50.0978235 50.6310222,48.6419412 50.6310222,48.6419412 L52.1824296,36.6137059 C52.1824296,36.3225294 52.2776296,34.6725294 53.2472593,33.8007647 C53.829037,33.4125294 54.4108148,33.2184118 55.0895556,33.3154706 C55.9604593,33.4125294 56.6392,33.7037059 57.0270519,34.2860588 C57.6088296,35.0607647 57.5118667,36.1284118 57.4149037,36.2254706 L55.7682963,53.1048824 C55.7682963,53.7825294 55.9604593,55.8207647 56.9300889,56.0148824 C58.1906074,56.209 58.8693481,55.1413529 58.8693481,55.1413529 L62.8430667,49.3213529 C63.5200444,48.5448824 65.2653778,47.2848824 66.9119852,48.5448824 C68.6555556,49.6125294 68.2694667,51.7460588 67.8816148,52.7166471"/>
  </g>
</svg>
