<svg xmlns="http://www.w3.org/2000/svg" width="80" height="80" viewBox="0 0 80 80">
  <Defs>
    <LinearGradient id="chats80-a" x1="50%" x2="50%" y1="0%" y2="100%">
      <Stop offset="0%" stop-color="#FFF" stop-opacity=".185"/>
      <Stop offset="100%" stop-color="#FFF"/>
    </LinearGradient>
    <LinearGradient id="chats80-b" x1="50%" x2="50%" y1=".865%" y2="100%">
      <Stop offset="0%" stop-color="#FFF"/>
      <Stop offset="100%" stop-color="#FFF" stop-opacity=".076"/>
    </LinearGradient>
  </Defs>
  <G fill="none" fill-rule="evenodd" transform="translate(6 10)">
    <Path fill="url(#chats80-a)" d="M21.4954835,0.178060606 C17.1353926,0.178060606 13.6012273,3.7289697 13.6012273,8.1089697 L13.6012273,15.2204848 L37.4752438,15.2204848 C41.8311116,15.2204848 45.361657,18.7713939 45.361657,23.1507879 L45.361657,43.1010909 L46.2177479,43.1010909 L49.6294421,47.0835152 L60.6554587,59.8895758 L60.6554587,43.1095758 L64.8997149,43.1095758 C69.2507562,43.1192727 72.7849215,39.5835152 72.7939711,35.2126061 L72.7939711,8.1089697 C72.7981942,3.73321212 69.2712686,0.182909091 64.9160041,0.178060606 L21.4954835,0.178060606 Z" opacity=".924"/>
    <Path fill="url(#chats80-b)" d="M34.3188686,18.1107273 L7.6955876,18.1107273 L7.67929835,18.1107273 C3.43383554,18.1149697 -0.00440413223,21.5798182 -0.000180991736,25.8489091 L-0.000180991736,52.2937576 C0.00886859504,56.5586061 3.45434793,60.0089091 7.6955876,59.9998182 L34.3188686,59.9919394 L34.3592901,59.9919394 C38.587257,59.9919394 42.0146372,56.5452727 42.0146372,52.2937576 L42.0146372,25.8489091 C42.0146372,21.5749697 38.5691579,18.1107273 34.3188686,18.1107273" opacity=".4"/>
    <Path fill="#FFF" d="M41.7871306,54.126303 C38.6505438,48.1529697 32.7972711,42.3614545 22.6738,40.7141818 L22.6774198,40.7050909 C7.70035372,38.2687273 5.66178347,29.6135758 5.59119669,29.2893333 C5.27566777,27.5996364 3.65880826,26.4881212 1.96955207,26.8032727 C1.13819669,26.9602424 0.448014876,27.4390303 -0.000241322314,28.086303 L-0.000241322314,32.1214545 C1.17922149,35.2675152 4.8925686,42.0014545 15.7243207,45.4444848 L15.7243207,59.9978182 L33.0717752,59.9923636 L33.0717752,52.5014545 C35.1917917,54.6953939 36.5160479,57.1741818 37.3443868,59.3844848 C39.5440397,58.4469091 41.2091636,56.5014545 41.7871306,54.126303"/>
    <Path fill="#FFF" d="M17.0150934,31.5227273 C17.0150934,35.6263636 20.3266388,38.9530303 24.4116223,38.9530303 C28.4960025,38.9530303 31.8081512,35.6263636 31.8081512,31.5227273 C31.8081512,27.4190909 28.4960025,24.0924242 24.4116223,24.0924242 C20.3266388,24.0924242 17.0150934,27.4190909 17.0150934,31.5227273"/>
  </G>
</svg>
