<svg xmlns="http://www.w3.org/2000/svg" width="52" height="50" viewBox="0 0 52 50">
  <defs>
    <linearGradient id="chats44-a" x1="50%" x2="50%" y1="0%" y2="100%">
      <stop offset="0%" stop-color="#FFF" stop-opacity=".179"/>
      <stop offset="100%" stop-color="#FFF"/>
    </linearGradient>
    <linearGradient id="chats44-b" x1="50%" x2="50%" y1=".865%" y2="100%">
      <stop offset="0%" stop-color="#FFF"/>
      <stop offset="100%" stop-color="#FFF" stop-opacity=".076"/>
    </linearGradient>
  </defs>
  <g fill="none" fill-rule="evenodd" transform="translate(4 6)">
    <path fill="url(#chats44-a)" d="M13.8985866,0.107058939 C11.2657109,0.107058939 9.13157699,2.24204303 9.13157699,4.87551803 L9.13157699,9.15131652 L23.5480924,9.15131652 C26.1784179,9.15131652 28.310366,11.2863006 28.310366,13.9194112 L28.310366,25.9145309 L28.8273233,25.9145309 L30.8875021,28.3089635 L37.5456502,36.0086074 L37.5456502,25.9196324 L40.1085782,25.9196324 C42.7359892,25.9254627 44.8701231,23.7995885 44.8755878,21.1715794 L44.8755878,4.87551803 C44.878138,2.24459379 42.7483758,0.109974091 40.1184146,0.107058939 L13.8985866,0.107058939 Z"/>
    <path fill="url(#chats44-b)" d="M20.7237227,11.8140748 L4.647042,11.8140748 L4.6372056,11.8140748 C2.073549,11.8166255 -0.0026594704,13.8998657 -0.000109293304,16.4666566 L-0.000109293304,32.3666217 C0.0053553719,34.9308619 2.08593557,37.0053566 4.647042,36.9998907 L20.7237227,36.9951536 L20.7481316,36.9951536 C23.3012231,36.9951536 25.370874,34.9228452 25.370874,32.3666217 L25.370874,16.4666566 C25.370874,13.8969505 23.2902938,11.8140748 20.7237227,11.8140748" opacity=".642"/>
    <path fill="#FFF" d="M25.2334923,33.4684397 C23.3394394,29.876973 19.8048939,26.3948245 13.6917551,25.4044018 L13.693941,25.3989359 C4.64992005,23.9340723 3.41891314,18.7301624 3.37628875,18.5352117 C3.18575409,17.5192814 2.20940057,16.8509829 1.18932974,17.0404677 C0.687309158,17.1348458 0.270537359,17.422717 -0.000145724405,17.8118897 L-0.000145724405,20.2380245 C0.712082307,22.1295935 2.9544166,26.1783745 9.49525654,28.2484965 L9.49525654,36.9986882 L19.9706554,36.9954086 L19.9706554,32.4914995 C21.2508443,33.8106056 22.050507,35.3009768 22.550706,36.6299215 C23.878984,36.0662041 24.8844824,34.8964995 25.2334923,33.4684397"/>
    <path fill="#FFF" d="M10.2746999,19.8780398 C10.2746999,22.3453511 12.2744031,24.3455095 14.741153,24.3455095 C17.2075385,24.3455095 19.207606,22.3453511 19.207606,19.8780398 C19.207606,17.4107284 17.2075385,15.4105701 14.741153,15.4105701 C12.2744031,15.4105701 10.2746999,17.4107284 10.2746999,19.8780398"/>
  </g>
</svg>
