<svg xmlns="http://www.w3.org/2000/svg" width="80" height="80" viewBox="0 0 80 80">
  <defs>
    <linearGradient id="profile-copy-a" x1="50%" x2="50%" y1="2.916%" y2="100%">
      <stop offset="0%" stop-color="#FFF" stop-opacity=".7"/>
      <stop offset="100%" stop-color="#FFF" stop-opacity=".104"/>
    </linearGradient>
  </defs>
  <g fill="none" transform="translate(5 14)">
    <path fill="url(#profile-copy-a)" d="M64.8107838,0.456140351 L7.18921618,0.456140351 C3.21872172,0.456140351 4.86245333e-16,3.29718178 0,6.80178399 L0,45.198216 C4.86245333e-16,48.7028182 3.21872172,51.5438596 7.18921618,51.5438596 L64.8107838,51.5438596 C68.7812783,51.5438596 72,48.7028182 72,45.198216 L72,6.80178399 C72,3.29718178 68.7812783,0.456140351 64.8107838,0.456140351 Z M63.1048101,41.9450801 L41.76,41.9450801 L41.76,38.3157895 L63.1048101,38.3157895 L63.1048101,41.9450801 Z M63.1048101,28.2608696 L38.8010127,28.2608696 L38.8010127,24.6315789 L63.1048101,24.6315789 L63.1048101,28.2608696 Z M63.1048101,14.9922426 L41.76,14.9922426 L41.76,11.3629519 L63.1048101,11.3629519 L63.1048101,14.9922426 Z" opacity=".862"/>
    <path fill="#FFF" d="M19.9647972,10.8694414 C22.7961936,10.867181 25.350055,12.5634173 26.4351571,15.166957 C27.5202593,17.7704967 26.922829,20.7684234 24.9215321,22.7623827 C22.9202351,24.756342 19.9093416,25.3535094 17.2932542,24.2753417 C14.6771668,23.197174 12.9712738,20.6560783 12.9712729,17.8373244 C12.9712717,13.99125 16.1014727,10.8725257 19.9647972,10.8694414 L19.9647972,10.8694414 Z M32.8405153,40.048499 C32.8428003,40.3549904 32.808891,40.660687 32.7394852,40.9592969 C32.7274756,41.679499 32.1439143,42.2604544 31.4204818,42.2724104 L8.61014262,42.2724104 L8.61014262,42.1718315 C7.88671012,42.1598755 7.30314889,41.5789201 7.29113924,40.858718 L7.29113924,39.2494555 C7.29113924,32.0804148 13.173333,26.0233296 20.0658272,26.0233296 C27.1659944,26.0233296 32.8405153,31.879257 32.8405153,39.1488766 L32.8405153,40.048499 Z"/>
  </g>
</svg>
