<svg xmlns="http://www.w3.org/2000/svg" width="120" height="120" viewBox="0 0 120 120">
  <defs>
    <linearGradient id="profile-a" x1="50%" x2="50%" y1="1.905%" y2="92.371%">
      <stop offset="0%" stop-color="#FFF" stop-opacity=".6"/>
      <stop offset="100%" stop-color="#FFF" stop-opacity=".2"/>
    </linearGradient>
  </defs>
  <g fill="none" fill-rule="evenodd" transform="translate(0 14)">
    <path fill="url(#profile-a)" fill-rule="nonzero" d="M108.017973,0 L11.982027,0 C5.3645362,-3.86447853e-16 8.10408888e-16,5.11621609 0,11.4273885 L0,80.5726115 C8.10408888e-16,86.8837839 5.3645362,92 11.982027,92 L108.017973,92 C114.635464,92 120,86.8837839 120,80.5726115 L120,11.4273885 C120,5.11621609 114.635464,3.86447853e-16 108.017973,0 Z M106.86,69.31 L71.73,69.31 L71.73,63.31 L106.86,63.31 L106.86,69.31 Z M106.86,49.31 L66.86,49.31 L66.86,43.31 L106.86,43.31 L106.86,49.31 Z M106.86,29.31 L71.73,29.31 L71.73,23.31 L106.86,23.31 L106.86,29.31 Z"/>
    <path fill="#FFF" fill-rule="nonzero" d="M34.11,18.21 C39.1545522,18.2059546 43.7046349,21.2416064 45.6379052,25.9010044 C47.5711755,30.5604024 46.5067649,35.9256111 42.9411578,39.4940799 C39.3755507,43.0625487 34.0111976,44.1312631 29.3502502,42.2017314 C24.6893027,40.2721997 21.6500016,35.7245539 21.65,30.68 C21.6499978,23.7969125 27.2269147,18.2155197 34.11,18.21 L34.11,18.21 Z M57.05,70.43 C57.0540711,70.9785091 56.9936567,71.5255958 56.87,72.06 C56.848603,73.3489022 55.8089022,74.388603 54.52,74.41 L13.88,74.41 L13.88,74.23 C12.5910978,74.208603 11.551397,73.1689022 11.53,71.88 L11.53,69 C11.53,56.17 22.01,45.33 34.29,45.33 C46.94,45.33 57.05,55.81 57.05,68.82 L57.05,70.43 Z"/>
  </g>
</svg>
